Patient4_TMGait_0pt5_02_left_14_EMG.mot
version=1
nRows=13
nColumns=33
inDegrees=no
endheader
time	1LAddLong	2LGlutMax	3LGlutMed	4LIliopsoas	5LSemiMemb	6LBicFemLong	7LRecFem	8LVastMed	9LVastLat	10LGasMed	11LTibAnt	12lTibPost	13LPeroneusLong	14LSol	15LExtDigLong	16LFlexDigLong	17RAddLong	18RGlutMax	19RGlutMed	20RIliopsoas	21RSemiMemb	22RBicFemLong	23RRecFem	24RVastMed	25RVastLat	26RGasMed	27RTibAnt	28RTibPost	29RPeroneusLong	30RSol	31RExtDigLong	32RFlexDigLong
17.62	0.019684	0.14206	-0.012817	0.001373	-0.016479	0.033264	-0.047607	0.006561	0.19699	-0.03891	-0.001678	0.016174	0.15228	0.076752	0.50888	0.014954	-0.0177	-0.097961	0.34805	0.18631	-0.065002	0.074463	-0.22522	-0.10788	0.14557	0.007782	0.12039	-0.009918	-1.537	-0.041046	0.019836	-0.013428
17.621	0.00885	0.13031	-0.024261	0.023499	-0.035095	0.033569	-0.039215	0.004883	0.19348	-0.043335	0.037384	0.016937	0.16052	0.09491	0.2446	0.007629	-0.023956	-0.1413	0.039368	0.00946	-0.025787	0.006104	-0.30258	-0.56061	0.20401	-0.011902	0.17044	-0.018921	-0.022278	0.16007	0.013733	-0.009918
17.622	0.006561	0.11231	-0.041351	0.038757	-0.015259	0.035858	-0.044403	0.005646	0.18951	-0.059509	0.084381	0.016022	0.12848	0.069275	-0.14648	0.000153	-0.002441	-0.13443	-0.24094	0.016785	0.007629	-0.017242	-0.15076	-0.48538	0.19699	-0.002441	0.095062	-0.014038	0.16708	0.087738	0.014191	-0.002289
17.623	0.007019	0.1326	-0.045471	0.022278	-0.00061	0.0177	-0.054321	0.00351	0.18448	-0.052795	-0.012512	0.012207	0.103	0.009003	-0.39185	-0.005798	0.00885	-0.045471	-0.020905	-0.006256	0.007477	0.052032	-0.14145	-0.29556	0.18219	0.003204	-0.16159	-0.000458	0.34622	-0.12985	0.014191	0.006256
17.624	0.001221	0.088959	-0.039673	0.003815	0.016479	0.018158	-0.049286	0.008698	0.18997	-0.030823	-0.075836	0.007477	0.071106	-0.031281	-0.17792	-0.00412	-0.007477	-0.053558	-0.084381	-0.067596	-0.016327	0.15778	-0.32059	-0.19363	0.12497	-0.009918	-0.055695	-0.005188	-0.95276	-0.27664	0.023499	0.006561
17.625	0.006714	0.052338	-0.046997	-0.002136	0.014496	0.013428	-0.053406	0.008698	0.18738	-0.033875	-0.010376	0.00885	0.045471	-0.034943	-0.13092	-0.001373	-0.02121	-0.10056	-0.27771	-0.096741	-0.035858	0.17746	-0.2887	-0.19577	0.033417	-0.022583	0.21118	-0.00412	1.2827	-0.093536	0.015259	-0.000153
17.626	-0.001831	0.040436	-0.092316	0.002747	0.014191	0.025635	-0.043182	0.008087	0.19379	-0.058594	0.09964	0.00885	0.042114	-0.046387	-0.12131	-0.000916	0.01358	-0.12909	-0.60745	-0.025635	-0.001068	0.081635	-0.063782	0.089264	0.00885	-0.003052	0.22995	-0.003357	1.1847	-0.17777	0.013428	-0.000305
17.627	0.004272	0.06134	-0.11185	0.007935	0.013275	0.025635	-0.036621	0.004578	0.19379	-0.09964	0.096588	0.010376	0.047913	-0.011902	-0.078583	0.012817	-0.01297	-0.087128	-0.52261	0.033875	0.00946	0.010376	0.03952	0.27039	0.035095	0.009155	-0.075989	-0.001984	0.02243	-0.17456	0.015106	0.000916
17.628	0.005798	0.052338	-0.10193	0.010681	0.011749	-0.025177	-0.034943	0.006561	0.19547	-0.093079	0.040131	0.011597	0.058289	-0.052795	-0.18097	0.008392	-0.01358	-0.032196	-0.26077	0.11322	-0.020447	-0.11246	0.17548	0.26398	0.033875	0.006409	-0.23895	-0.008545	0.23697	0.051422	0.020447	0.004272
17.629	0.017242	0.059052	-0.022888	-0.003052	0.00946	-0.008545	-0.050201	0.003815	0.19333	-0.04303	-0.080566	0.014954	0.11475	-0.080109	-0.14801	-0.001831	-0.011597	-0.016632	0.077209	0.1265	-0.033569	-0.19119	0.2449	0.26367	-0.064392	-0.001678	-0.21942	-0.007477	-0.17227	0.20554	0.009613	-0.001526
17.63	0.011749	0.045013	-0.019989	0.014343	0.010681	-0.015564	-0.039368	0.00412	0.20248	-0.023041	-0.063934	0.009766	0.14526	-0.0737	-0.028076	0.006561	0.014038	0.037079	0.18753	-0.019989	-0.091553	-0.19043	0.23025	0.13931	-0.024414	-0.008392	-0.089722	-0.00946	-1.1452	0.13397	0.00824	-0.005188
17.631	0.028076	0.046234	0.013885	0.015869	0.013733	0.007935	-0.058594	-0.00351	0.19684	-0.006714	-0.014496	0.011139	0.10498	-0.022888	0.10208	0.005341	-0.001831	-0.017548	1.3332	-0.16144	-0.10239	-0.10834	-0.006866	0.095673	0.09903	-0.009613	0.002899	-0.006866	-1.0413	-0.046234	0.015259	-0.007935
17.632	-0.023193	0.04303	0.033112	0.010071	0.011597	0.022583	-0.036926	0.000763	0.1889	0.027161	-0.084076	0.014648	0.062561	-0.002136	0.095367	-0.003052	-0.008087	-0.027771	1.2727	-0.089417	-0.096588	0.00351	-0.37964	0.077209	0.24124	0.006409	0.091553	-0.013123	-0.000153	-0.10864	0.017548	-0.006714
